<svg xmlns="http://www.w3.org/2000/svg" viewBox="0 0 626 626"><defs><style>.cls-1{fill:#0e0d09;}.cls-2{fill:none;stroke:#b32e22;stroke-miterlimit:10;stroke-width:20px;}.cls-3{fill:#67aada;}.cls-4{fill:#b32e22;}.cls-5{fill:#417c69;}.cls-6{fill:#ebd259;}</style></defs><title>nitespots</title><g id="Laag_2" data-name="Laag 2"><g id="BG_circle" data-name="BG circle"><path class="cls-1" d="M626,313a315.89,315.89,0,0,1-2.15,36.86q-.58,5.06-1.35,10.05-1,6.64-2.27,13.19-1.82,9.38-4.2,18.55C581.15,526.45,458.71,626,313,626,188.46,626,80.91,553.27,30.51,448a313.77,313.77,0,0,1-.84-268.15C79.71,73.55,187.76,0,313,0,457.61,0,579.31,98.06,615.23,231.31q2.5,9.28,4.45,18.8,1.62,7.92,2.82,16,.76,5,1.35,10.06A315.59,315.59,0,0,1,626,313Z"/></g><g id="Red_circle" data-name="Red circle"><path class="cls-2" d="M493.22,514.05A269,269,0,0,1,313,583C163.88,583,43,462.12,43,313S163.88,43,313,43A268.84,268.84,0,0,1,446.72,78.38"/></g><g id="Blue_Polygon" data-name="Blue Polygon"><path class="cls-3" d="M303.48,482.34a3,3,0,0,1-3-3V142.67a3,3,0,0,1,3-3,3.06,3.06,0,0,1,.85.12l310.49,91.91c1.65,6.15,3.12,12.37,4.37,18.5,1.07,5.24,2,10.61,2.82,16,.51,3.34,1,6.72,1.34,10a315.93,315.93,0,0,1,0,73.59c-.38,3.34-.84,6.72-1.34,10-.65,4.35-1.41,8.78-2.27,13.17-1.19,6.16-2.58,12.29-4.12,18.25l-311.3,91A3,3,0,0,1,303.48,482.34Z"/><path d="M303.48,140.18h0a2.44,2.44,0,0,1,.71.1l310.22,91.83c1.62,6,3.06,12.17,4.29,18.2,1.07,5.23,2,10.59,2.81,15.93.51,3.32,1,6.7,1.35,10a316.36,316.36,0,0,1,0,73.47c-.39,3.35-.84,6.72-1.35,10-.65,4.34-1.41,8.76-2.26,13.15-1.17,6-2.53,12.07-4,17.94l-311,90.89a2.75,2.75,0,0,1-.7.1,2.49,2.49,0,0,1-2.48-2.49V142.67a2.49,2.49,0,0,1,2.48-2.49m0-1a3.49,3.49,0,0,0-3.48,3.49V479.35a3.49,3.49,0,0,0,3.48,3.49,3.74,3.74,0,0,0,1-.14L616,391.65q2.38-9.16,4.2-18.55,1.28-6.54,2.27-13.19.76-5,1.35-10.05a317,317,0,0,0,0-73.71q-.58-5.06-1.35-10.06-1.2-8.05-2.82-16-1.93-9.51-4.45-18.8l-310.75-92a3.89,3.89,0,0,0-1-.14Z"/></g><g id="Red_Polygon" data-name="Red Polygon"><path class="cls-4" d="M267.48,461.51a3,3,0,0,1-3-3v-295a3,3,0,0,1,3-3,3.22,3.22,0,0,1,.75.1l351,89.92c1,5.14,2,10.41,2.76,15.64.51,3.34,1,6.72,1.34,10a315.93,315.93,0,0,1,0,73.59c-.38,3.34-.84,6.72-1.34,10-.64,4.25-1.38,8.57-2.21,12.86L299.88,453.43l-31.66,8A3.12,3.12,0,0,1,267.48,461.51Z"/><path d="M267.48,161h0a2.57,2.57,0,0,1,.62.08l31.65,8.11,319.07,81.73c1,5,1.93,10.19,2.69,15.32.51,3.32,1,6.7,1.35,10a316.45,316.45,0,0,1,0,73.48c-.39,3.34-.84,6.71-1.35,10-.61,4.13-1.33,8.34-2.14,12.53L299.76,452.94l-31.66,8a2.25,2.25,0,0,1-.62.08,2.48,2.48,0,0,1-2.48-2.49v-295a2.49,2.49,0,0,1,2.48-2.49m0-1a3.49,3.49,0,0,0-3.48,3.49v295a3.48,3.48,0,0,0,3.48,3.49,3.22,3.22,0,0,0,.86-.11l31.66-8L620.23,373.1q1.28-6.54,2.27-13.19.76-5,1.35-10.05a317,317,0,0,0,0-73.71q-.58-5.06-1.35-10.06-1.2-8.05-2.82-16L300,168.22l-31.65-8.11a3.7,3.7,0,0,0-.87-.11Z"/></g><g id="Green_Polygon" data-name="Green Polygon"><path class="cls-5" d="M231.48,444.66a3,3,0,0,1-3-3V184.33a3,3,0,0,1,3-3,3.48,3.48,0,0,1,.64.07l31.77,6.94,36,7.85,322.17,70.3c.49,3.23.92,6.5,1.29,9.71a315.93,315.93,0,0,1,0,73.59c-.37,3.23-.81,6.49-1.29,9.7L299.89,429.8l-36,7.85-31.77,6.94A3.48,3.48,0,0,1,231.48,444.66Z"/><path d="M231.48,181.84h0a2.48,2.48,0,0,1,.54.06l31.77,6.94,36,7.85,321.82,70.23c.47,3.1.89,6.24,1.25,9.35a316.36,316.36,0,0,1,0,73.47c-.36,3.12-.78,6.26-1.25,9.34L299.79,429.31l-36,7.85L232,444.1a2.48,2.48,0,0,1-3-2.43V184.33a2.49,2.49,0,0,1,2.48-2.49m0-1a3.49,3.49,0,0,0-3.48,3.49V441.67a3.49,3.49,0,0,0,3.48,3.49,3.82,3.82,0,0,0,.75-.08L264,438.14l36-7.85,322.5-70.38q.76-5,1.35-10.05a317,317,0,0,0,0-73.71q-.58-5.06-1.35-10.06L300,195.71l-36-7.85-31.77-6.94a3.82,3.82,0,0,0-.75-.08Z"/></g><g id="Yellow_Polygon" data-name="Yellow Polygon"><path class="cls-6" d="M30.8,447.41a313.3,313.3,0,0,1-.84-267L623.4,276.58a317,317,0,0,1,0,72.85Z"/><path d="M30.25,180.92,622.94,277a315.42,315.42,0,0,1,0,72L31.09,446.85a312.79,312.79,0,0,1-.84-265.93m-.58-1.11A313.77,313.77,0,0,0,30.51,448l593.34-98.1a317,317,0,0,0,0-73.71L29.67,179.81Z"/></g><g id="Tekst"><path d="M95,264c-.15,44.43-.41,88.86-.44,133.29l-2.07.21c0-58.73.52-117.46.5-176.18,15.55,45.81,27.81,92.64,42.6,138.7.15-43.15.44-86.31.45-129.46l2.07.23c0,55.44-.49,110.87-.5,166.3C120.64,353.72,108.46,308.64,95,264Z"/><path d="M165.19,390c.05-52.22.45-104.44.5-156.66.87.11,4.3.55,5.18.65-.05,52-.21,103.19-.26,155.23C169.74,389.34,166.07,389.91,165.19,390Z"/><path d="M209.53,384.83c.05-46.66.37-93.32.45-140-8-.93-11.94-1.39-19.91-2.3v-6.63q23.94,3,47.83,6.17v6.12c-7.94-1-11.91-1.46-19.86-2.4-.08,46-.39,92-.44,138Z"/><path d="M252.39,378.51c0-44.62.36-89.24.39-133.86q19.93,2.73,39.84,5.56v5.41q-15.89-2.06-31.78-4.06c0,9,0,13.76,0,23.59q16,1.23,32,2.5c0,2.41,0,3.63,0,6.08q-16-1-32-2.05-.16,44.94-.3,89.88,15.91-2,31.83-4.12c0,2.22,0,3.3,0,5.44Q272.36,375.73,252.39,378.51Z"/><path d="M323.89,257.14c-2.57-.35-4.62.86-6.16,3.88s-2.3,7.52-2.31,13.69a68.28,68.28,0,0,0,1.4,13.53c.95,4.7,2.25,10.12,3.91,16.16.84,3.07,1.63,6.08,2.39,9s1.42,5.91,2,8.9,1,6,1.37,9.07a84.22,84.22,0,0,1,.49,9.54,68.72,68.72,0,0,1-.82,10.75,39.49,39.49,0,0,1-2.4,8.84,18.68,18.68,0,0,1-4,6.27,12,12,0,0,1-5.73,3.26c0-1.57,0-2.38,0-4a9.05,9.05,0,0,0,4.87-2.84,17.39,17.39,0,0,0,3.34-5.5,34.34,34.34,0,0,0,1.94-7.52,60.14,60.14,0,0,0,.65-9.06,83.66,83.66,0,0,0-1.67-17c-1.13-5.56-2.56-11.31-4.25-17.18-1.75-6.06-3.12-11.75-4.14-16.92a79.62,79.62,0,0,1-1.51-15.52c0-7.83,1-13.34,2.89-16.89s4.49-4.9,7.76-4.43C323.88,254.74,323.88,255.53,323.89,257.14Z"/><path d="M347,365c0-35.64.21-71.29.22-106.93l26,3.75a14.31,14.31,0,0,1,7.22,3.32,22.22,22.22,0,0,1,5.53,7.3,43.5,43.5,0,0,1,3.53,11,75,75,0,0,1,1.24,14.48,79.38,79.38,0,0,1-1.3,14.73,46.68,46.68,0,0,1-3.58,11.4,22.53,22.53,0,0,1-5.55,7.52,12.31,12.31,0,0,1-7.24,3.07l-17.93,1.24c0,11.8,0,17.57,0,27.95Zm26-35.35a10.54,10.54,0,0,0,6.31-2.59,19.61,19.61,0,0,0,4.89-6.52,39.31,39.31,0,0,0,3.14-9.91,68.92,68.92,0,0,0,1.12-12.8,65.77,65.77,0,0,0-1.07-12.63,37.57,37.57,0,0,0-3.09-9.66,19.69,19.69,0,0,0-4.87-6.43,12.08,12.08,0,0,0-6.3-2.86l-17.9-2.37q0,33.38-.16,66.75Z"/><path d="M562.7,335.42q-.06-23-.1-46c-8-.85-12-1.28-19.91-2.17,0-1,0-1.48,0-2.45q23.9,2.9,47.83,5.51v2c-7.94-.79-11.91-1.19-19.85-2q.06,22.08.11,44.18Z"/><path d="M605,292.93a4.25,4.25,0,0,0-4,1.23,7,7,0,0,0-1.49,4.93,13,13,0,0,0,1,4.73,44.65,44.65,0,0,0,2.6,5.4c.56,1,1.09,2,1.59,2.92s1,1.89,1.34,2.84a18.93,18.93,0,0,1,.93,2.91,13.71,13.71,0,0,1,.34,3.13,13.4,13.4,0,0,1-.51,3.74,11.79,11.79,0,0,1-1.56,3.35,9.85,9.85,0,0,1-2.62,2.65,10.68,10.68,0,0,1-3.74,1.63v-1.65a8.15,8.15,0,0,0,3.17-1.37,8.61,8.61,0,0,0,2.18-2.25,9.62,9.62,0,0,0,1.25-2.81,12.28,12.28,0,0,0,.41-3.16,14.18,14.18,0,0,0-1.15-5.55,46.29,46.29,0,0,0-2.83-5.55,38.88,38.88,0,0,1-2.75-5.67,15.21,15.21,0,0,1-1-5.44c0-2.79.61-4.86,1.86-6.18a5.39,5.39,0,0,1,5.07-1.42C605,292,605,292.29,605,292.93Z"/><circle cx="469.6" cy="313" r="64"/></g></g></svg>